<mxfile host="app.diagrams.net" modified="2023-11-14T07:56:33.229Z" agent="Mozilla/5.0 (Windows NT 10.0; Win64; x64) AppleWebKit/537.36 (KHTML, like Gecko) Chrome/119.0.0.0 Safari/537.36" etag="iStQzr6Zd-dRnT-TmQQ3" version="22.1.0" type="github">
  <diagram name="Page-1" id="AglED8rV2lXDWNFlJELm">
    <mxGraphModel dx="2074" dy="1150" grid="1" gridSize="10" guides="1" tooltips="1" connect="1" arrows="1" fold="1" page="1" pageScale="1" pageWidth="850" pageHeight="1100" math="0" shadow="0">
      <root>
        <mxCell id="0" />
        <mxCell id="1" parent="0" />
        <mxCell id="lrsJLsBb-M8_abIkjrfc-1" value="main" style="rounded=0;whiteSpace=wrap;html=1;fillColor=#dae8fc;strokeColor=#6c8ebf;" vertex="1" parent="1">
          <mxGeometry x="100" y="140" width="100" height="30" as="geometry" />
        </mxCell>
        <mxCell id="lrsJLsBb-M8_abIkjrfc-2" value="hotfix" style="rounded=0;whiteSpace=wrap;html=1;fillColor=#ffe6cc;strokeColor=#d79b00;" vertex="1" parent="1">
          <mxGeometry x="100" y="220" width="100" height="30" as="geometry" />
        </mxCell>
        <mxCell id="lrsJLsBb-M8_abIkjrfc-3" value="dev" style="rounded=0;whiteSpace=wrap;html=1;fillColor=#0050ef;strokeColor=#001DBC;fontColor=#ffffff;" vertex="1" parent="1">
          <mxGeometry x="100" y="304" width="100" height="30" as="geometry" />
        </mxCell>
        <mxCell id="lrsJLsBb-M8_abIkjrfc-4" value="feature" style="rounded=0;whiteSpace=wrap;html=1;fillColor=#e1d5e7;strokeColor=#9673a6;" vertex="1" parent="1">
          <mxGeometry x="100" y="507" width="100" height="30" as="geometry" />
        </mxCell>
        <mxCell id="lrsJLsBb-M8_abIkjrfc-7" value="sonarqube CI" style="sketch=0;outlineConnect=0;fontColor=#232F3E;gradientColor=none;fillColor=#01A88D;strokeColor=none;dashed=0;verticalLabelPosition=bottom;verticalAlign=top;align=center;html=1;fontSize=12;fontStyle=0;aspect=fixed;pointerEvents=1;shape=mxgraph.aws4.sagemaker_train;" vertex="1" parent="1">
          <mxGeometry x="40" y="294" width="30" height="25" as="geometry" />
        </mxCell>
        <mxCell id="lrsJLsBb-M8_abIkjrfc-8" value="" style="ellipse;whiteSpace=wrap;html=1;aspect=fixed;fillColor=#dae8fc;strokeColor=#6c8ebf;" vertex="1" parent="1">
          <mxGeometry x="240" y="140" width="30" height="30" as="geometry" />
        </mxCell>
        <mxCell id="lrsJLsBb-M8_abIkjrfc-9" value="" style="endArrow=none;html=1;rounded=0;" edge="1" parent="1">
          <mxGeometry width="50" height="50" relative="1" as="geometry">
            <mxPoint x="200" y="154.5" as="sourcePoint" />
            <mxPoint x="240" y="154.5" as="targetPoint" />
          </mxGeometry>
        </mxCell>
        <mxCell id="lrsJLsBb-M8_abIkjrfc-10" value="" style="endArrow=none;html=1;rounded=0;" edge="1" parent="1">
          <mxGeometry width="50" height="50" relative="1" as="geometry">
            <mxPoint x="255" y="121" as="sourcePoint" />
            <mxPoint x="254.5" y="141" as="targetPoint" />
          </mxGeometry>
        </mxCell>
        <mxCell id="lrsJLsBb-M8_abIkjrfc-11" value="v.1.0.0" style="rounded=0;whiteSpace=wrap;html=1;fillColor=#dae8fc;strokeColor=#6c8ebf;" vertex="1" parent="1">
          <mxGeometry x="227.5" y="100" width="55" height="20" as="geometry" />
        </mxCell>
        <mxCell id="lrsJLsBb-M8_abIkjrfc-13" value="" style="endArrow=classic;html=1;rounded=0;" edge="1" parent="1">
          <mxGeometry width="50" height="50" relative="1" as="geometry">
            <mxPoint x="270" y="154.5" as="sourcePoint" />
            <mxPoint x="310" y="155" as="targetPoint" />
          </mxGeometry>
        </mxCell>
        <mxCell id="lrsJLsBb-M8_abIkjrfc-14" value="" style="ellipse;whiteSpace=wrap;html=1;aspect=fixed;fillColor=#dae8fc;strokeColor=#6c8ebf;" vertex="1" parent="1">
          <mxGeometry x="310" y="140" width="30" height="30" as="geometry" />
        </mxCell>
        <mxCell id="lrsJLsBb-M8_abIkjrfc-15" value="v.1.0.1" style="rounded=0;whiteSpace=wrap;html=1;fillColor=#dae8fc;strokeColor=#6c8ebf;" vertex="1" parent="1">
          <mxGeometry x="297.5" y="100" width="55" height="20" as="geometry" />
        </mxCell>
        <mxCell id="lrsJLsBb-M8_abIkjrfc-16" value="" style="endArrow=none;html=1;rounded=0;" edge="1" parent="1">
          <mxGeometry width="50" height="50" relative="1" as="geometry">
            <mxPoint x="325" y="120" as="sourcePoint" />
            <mxPoint x="324.5" y="140" as="targetPoint" />
          </mxGeometry>
        </mxCell>
        <mxCell id="lrsJLsBb-M8_abIkjrfc-17" value="" style="endArrow=classic;startArrow=classic;html=1;rounded=0;entryX=0.5;entryY=1;entryDx=0;entryDy=0;" edge="1" parent="1" target="lrsJLsBb-M8_abIkjrfc-8">
          <mxGeometry width="50" height="50" relative="1" as="geometry">
            <mxPoint x="255" y="300" as="sourcePoint" />
            <mxPoint x="254.5" y="190" as="targetPoint" />
          </mxGeometry>
        </mxCell>
        <mxCell id="lrsJLsBb-M8_abIkjrfc-19" value="" style="ellipse;whiteSpace=wrap;html=1;aspect=fixed;fillColor=#0050ef;strokeColor=#001DBC;fontColor=#ffffff;" vertex="1" parent="1">
          <mxGeometry x="240" y="304" width="30" height="30" as="geometry" />
        </mxCell>
        <mxCell id="lrsJLsBb-M8_abIkjrfc-20" value="" style="endArrow=none;html=1;rounded=0;" edge="1" parent="1">
          <mxGeometry width="50" height="50" relative="1" as="geometry">
            <mxPoint x="200" y="318.5" as="sourcePoint" />
            <mxPoint x="240" y="318.5" as="targetPoint" />
          </mxGeometry>
        </mxCell>
        <mxCell id="lrsJLsBb-M8_abIkjrfc-21" value="" style="endArrow=classic;html=1;rounded=0;" edge="1" parent="1">
          <mxGeometry width="50" height="50" relative="1" as="geometry">
            <mxPoint x="270" y="319" as="sourcePoint" />
            <mxPoint x="310" y="319.5" as="targetPoint" />
          </mxGeometry>
        </mxCell>
        <mxCell id="lrsJLsBb-M8_abIkjrfc-22" value="" style="ellipse;whiteSpace=wrap;html=1;aspect=fixed;fillColor=#0050ef;strokeColor=#001DBC;fontColor=#ffffff;" vertex="1" parent="1">
          <mxGeometry x="310" y="304" width="30" height="30" as="geometry" />
        </mxCell>
        <mxCell id="lrsJLsBb-M8_abIkjrfc-24" value="" style="ellipse;whiteSpace=wrap;html=1;aspect=fixed;fillColor=#ffe6cc;strokeColor=#d79b00;" vertex="1" parent="1">
          <mxGeometry x="290" y="220" width="30" height="30" as="geometry" />
        </mxCell>
        <mxCell id="lrsJLsBb-M8_abIkjrfc-26" value="" style="endArrow=none;html=1;rounded=0;entryX=0;entryY=0.5;entryDx=0;entryDy=0;" edge="1" parent="1" target="lrsJLsBb-M8_abIkjrfc-24">
          <mxGeometry width="50" height="50" relative="1" as="geometry">
            <mxPoint x="200" y="234.5" as="sourcePoint" />
            <mxPoint x="270" y="234.5" as="targetPoint" />
          </mxGeometry>
        </mxCell>
        <mxCell id="lrsJLsBb-M8_abIkjrfc-27" value="" style="endArrow=classic;html=1;rounded=0;entryX=0.5;entryY=0;entryDx=0;entryDy=0;" edge="1" parent="1" target="lrsJLsBb-M8_abIkjrfc-22">
          <mxGeometry width="50" height="50" relative="1" as="geometry">
            <mxPoint x="310" y="250" as="sourcePoint" />
            <mxPoint x="340" y="280" as="targetPoint" />
          </mxGeometry>
        </mxCell>
        <mxCell id="lrsJLsBb-M8_abIkjrfc-28" value="" style="endArrow=classic;html=1;rounded=0;entryX=0.5;entryY=1;entryDx=0;entryDy=0;" edge="1" parent="1" target="lrsJLsBb-M8_abIkjrfc-14">
          <mxGeometry width="50" height="50" relative="1" as="geometry">
            <mxPoint x="305" y="220" as="sourcePoint" />
            <mxPoint x="340" y="190" as="targetPoint" />
          </mxGeometry>
        </mxCell>
        <mxCell id="lrsJLsBb-M8_abIkjrfc-29" value="" style="endArrow=classic;html=1;rounded=0;" edge="1" parent="1">
          <mxGeometry width="50" height="50" relative="1" as="geometry">
            <mxPoint x="260" y="334" as="sourcePoint" />
            <mxPoint x="380" y="400" as="targetPoint" />
          </mxGeometry>
        </mxCell>
        <mxCell id="lrsJLsBb-M8_abIkjrfc-30" value="" style="ellipse;whiteSpace=wrap;html=1;aspect=fixed;fillColor=#e1d5e7;strokeColor=#9673a6;" vertex="1" parent="1">
          <mxGeometry x="380" y="390" width="30" height="30" as="geometry" />
        </mxCell>
        <mxCell id="lrsJLsBb-M8_abIkjrfc-31" value="" style="endArrow=none;html=1;rounded=0;" edge="1" parent="1">
          <mxGeometry width="50" height="50" relative="1" as="geometry">
            <mxPoint x="200" y="521.5" as="sourcePoint" />
            <mxPoint x="380" y="522" as="targetPoint" />
          </mxGeometry>
        </mxCell>
        <mxCell id="lrsJLsBb-M8_abIkjrfc-32" value="" style="ellipse;whiteSpace=wrap;html=1;aspect=fixed;fillColor=#e1d5e7;strokeColor=#9673a6;" vertex="1" parent="1">
          <mxGeometry x="380" y="507" width="30" height="30" as="geometry" />
        </mxCell>
        <mxCell id="lrsJLsBb-M8_abIkjrfc-33" value="cs-100-xxx" style="rounded=0;whiteSpace=wrap;html=1;fillColor=#e1d5e7;strokeColor=#9673a6;" vertex="1" parent="1">
          <mxGeometry x="358.75" y="440" width="72.5" height="20" as="geometry" />
        </mxCell>
        <mxCell id="lrsJLsBb-M8_abIkjrfc-34" value="" style="endArrow=none;html=1;rounded=0;" edge="1" parent="1">
          <mxGeometry width="50" height="50" relative="1" as="geometry">
            <mxPoint x="395" y="420" as="sourcePoint" />
            <mxPoint x="394.5" y="440" as="targetPoint" />
          </mxGeometry>
        </mxCell>
        <mxCell id="lrsJLsBb-M8_abIkjrfc-35" value="" style="endArrow=classic;html=1;rounded=0;" edge="1" parent="1">
          <mxGeometry width="50" height="50" relative="1" as="geometry">
            <mxPoint x="410" y="404.5" as="sourcePoint" />
            <mxPoint x="460" y="405" as="targetPoint" />
          </mxGeometry>
        </mxCell>
        <mxCell id="lrsJLsBb-M8_abIkjrfc-36" value="" style="ellipse;whiteSpace=wrap;html=1;aspect=fixed;fillColor=#e1d5e7;strokeColor=#9673a6;" vertex="1" parent="1">
          <mxGeometry x="460" y="390" width="30" height="30" as="geometry" />
        </mxCell>
        <mxCell id="lrsJLsBb-M8_abIkjrfc-37" value="" style="endArrow=classic;html=1;rounded=0;" edge="1" parent="1">
          <mxGeometry width="50" height="50" relative="1" as="geometry">
            <mxPoint x="340" y="318" as="sourcePoint" />
            <mxPoint x="520" y="319" as="targetPoint" />
          </mxGeometry>
        </mxCell>
        <mxCell id="lrsJLsBb-M8_abIkjrfc-38" value="" style="ellipse;whiteSpace=wrap;html=1;aspect=fixed;fillColor=#0050ef;strokeColor=#001DBC;fontColor=#ffffff;" vertex="1" parent="1">
          <mxGeometry x="520" y="304" width="30" height="30" as="geometry" />
        </mxCell>
        <mxCell id="lrsJLsBb-M8_abIkjrfc-39" value="" style="endArrow=classic;html=1;rounded=0;entryX=0.5;entryY=1;entryDx=0;entryDy=0;" edge="1" parent="1" target="lrsJLsBb-M8_abIkjrfc-38">
          <mxGeometry width="50" height="50" relative="1" as="geometry">
            <mxPoint x="490" y="399" as="sourcePoint" />
            <mxPoint x="550" y="319" as="targetPoint" />
          </mxGeometry>
        </mxCell>
        <mxCell id="lrsJLsBb-M8_abIkjrfc-40" value="" style="endArrow=classic;html=1;rounded=0;entryX=0.5;entryY=0;entryDx=0;entryDy=0;" edge="1" parent="1" target="lrsJLsBb-M8_abIkjrfc-41">
          <mxGeometry width="50" height="50" relative="1" as="geometry">
            <mxPoint x="540" y="334" as="sourcePoint" />
            <mxPoint x="590" y="374" as="targetPoint" />
          </mxGeometry>
        </mxCell>
        <mxCell id="lrsJLsBb-M8_abIkjrfc-41" value="" style="ellipse;whiteSpace=wrap;html=1;aspect=fixed;fillColor=#e1d5e7;strokeColor=#9673a6;" vertex="1" parent="1">
          <mxGeometry x="580" y="390" width="30" height="30" as="geometry" />
        </mxCell>
        <mxCell id="lrsJLsBb-M8_abIkjrfc-43" value="cs-100-xxx" style="rounded=0;whiteSpace=wrap;html=1;fillColor=#e1d5e7;strokeColor=#9673a6;" vertex="1" parent="1">
          <mxGeometry x="558.75" y="440" width="72.5" height="20" as="geometry" />
        </mxCell>
        <mxCell id="lrsJLsBb-M8_abIkjrfc-44" value="" style="endArrow=none;html=1;rounded=0;" edge="1" parent="1">
          <mxGeometry width="50" height="50" relative="1" as="geometry">
            <mxPoint x="595" y="420" as="sourcePoint" />
            <mxPoint x="594.5" y="440" as="targetPoint" />
          </mxGeometry>
        </mxCell>
        <mxCell id="lrsJLsBb-M8_abIkjrfc-45" value="" style="endArrow=classic;html=1;rounded=0;" edge="1" parent="1">
          <mxGeometry width="50" height="50" relative="1" as="geometry">
            <mxPoint x="610" y="404.5" as="sourcePoint" />
            <mxPoint x="650" y="404.5" as="targetPoint" />
          </mxGeometry>
        </mxCell>
        <mxCell id="lrsJLsBb-M8_abIkjrfc-46" value="" style="ellipse;whiteSpace=wrap;html=1;aspect=fixed;fillColor=#e1d5e7;strokeColor=#9673a6;" vertex="1" parent="1">
          <mxGeometry x="650" y="390" width="30" height="30" as="geometry" />
        </mxCell>
        <mxCell id="lrsJLsBb-M8_abIkjrfc-48" value="" style="ellipse;whiteSpace=wrap;html=1;aspect=fixed;fillColor=#e1d5e7;strokeColor=#9673a6;" vertex="1" parent="1">
          <mxGeometry x="720" y="390" width="30" height="30" as="geometry" />
        </mxCell>
        <mxCell id="lrsJLsBb-M8_abIkjrfc-49" value="" style="endArrow=classic;html=1;rounded=0;" edge="1" parent="1">
          <mxGeometry width="50" height="50" relative="1" as="geometry">
            <mxPoint x="680" y="404.5" as="sourcePoint" />
            <mxPoint x="720" y="404.5" as="targetPoint" />
          </mxGeometry>
        </mxCell>
        <mxCell id="lrsJLsBb-M8_abIkjrfc-50" value="" style="endArrow=classic;html=1;rounded=0;" edge="1" parent="1">
          <mxGeometry width="50" height="50" relative="1" as="geometry">
            <mxPoint x="550" y="318" as="sourcePoint" />
            <mxPoint x="720" y="319" as="targetPoint" />
          </mxGeometry>
        </mxCell>
        <mxCell id="lrsJLsBb-M8_abIkjrfc-51" value="" style="ellipse;whiteSpace=wrap;html=1;aspect=fixed;fillColor=#0050ef;strokeColor=#001DBC;fontColor=#ffffff;" vertex="1" parent="1">
          <mxGeometry x="720" y="304" width="30" height="30" as="geometry" />
        </mxCell>
        <mxCell id="lrsJLsBb-M8_abIkjrfc-52" value="" style="endArrow=classic;html=1;rounded=0;" edge="1" parent="1">
          <mxGeometry width="50" height="50" relative="1" as="geometry">
            <mxPoint x="750" y="318" as="sourcePoint" />
            <mxPoint x="790" y="319" as="targetPoint" />
          </mxGeometry>
        </mxCell>
        <mxCell id="lrsJLsBb-M8_abIkjrfc-53" value="" style="ellipse;whiteSpace=wrap;html=1;aspect=fixed;fillColor=#0050ef;strokeColor=#001DBC;fontColor=#ffffff;" vertex="1" parent="1">
          <mxGeometry x="790" y="304" width="30" height="30" as="geometry" />
        </mxCell>
        <mxCell id="lrsJLsBb-M8_abIkjrfc-54" value="" style="endArrow=classic;html=1;rounded=0;" edge="1" parent="1">
          <mxGeometry width="50" height="50" relative="1" as="geometry">
            <mxPoint x="820" y="319" as="sourcePoint" />
            <mxPoint x="860" y="320" as="targetPoint" />
          </mxGeometry>
        </mxCell>
        <mxCell id="lrsJLsBb-M8_abIkjrfc-55" value="" style="ellipse;whiteSpace=wrap;html=1;aspect=fixed;fillColor=#0050ef;strokeColor=#001DBC;fontColor=#ffffff;" vertex="1" parent="1">
          <mxGeometry x="860" y="304" width="30" height="30" as="geometry" />
        </mxCell>
        <mxCell id="lrsJLsBb-M8_abIkjrfc-56" value="" style="endArrow=classic;html=1;rounded=0;entryX=0.5;entryY=1;entryDx=0;entryDy=0;" edge="1" parent="1" target="lrsJLsBb-M8_abIkjrfc-55">
          <mxGeometry width="50" height="50" relative="1" as="geometry">
            <mxPoint x="750" y="405" as="sourcePoint" />
            <mxPoint x="795" y="340" as="targetPoint" />
          </mxGeometry>
        </mxCell>
        <mxCell id="lrsJLsBb-M8_abIkjrfc-57" value="uat" style="rounded=0;whiteSpace=wrap;html=1;fillColor=#fff2cc;strokeColor=#d6b656;gradientColor=#ffd966;" vertex="1" parent="1">
          <mxGeometry x="380" y="250" width="100" height="30" as="geometry" />
        </mxCell>
        <mxCell id="lrsJLsBb-M8_abIkjrfc-58" value="" style="endArrow=none;html=1;rounded=0;" edge="1" parent="1">
          <mxGeometry width="50" height="50" relative="1" as="geometry">
            <mxPoint x="480" y="264.5" as="sourcePoint" />
            <mxPoint x="530" y="265" as="targetPoint" />
          </mxGeometry>
        </mxCell>
        <mxCell id="lrsJLsBb-M8_abIkjrfc-59" value="" style="ellipse;whiteSpace=wrap;html=1;aspect=fixed;fillColor=#fff2cc;strokeColor=#d6b656;gradientColor=#ffd966;" vertex="1" parent="1">
          <mxGeometry x="528.75" y="250" width="30" height="30" as="geometry" />
        </mxCell>
        <mxCell id="lrsJLsBb-M8_abIkjrfc-60" value="" style="endArrow=classic;html=1;rounded=0;entryX=0.5;entryY=1;entryDx=0;entryDy=0;" edge="1" parent="1" target="lrsJLsBb-M8_abIkjrfc-59">
          <mxGeometry width="50" height="50" relative="1" as="geometry">
            <mxPoint x="533.75" y="304" as="sourcePoint" />
            <mxPoint x="553.75" y="269" as="targetPoint" />
          </mxGeometry>
        </mxCell>
        <mxCell id="lrsJLsBb-M8_abIkjrfc-61" value="" style="ellipse;whiteSpace=wrap;html=1;aspect=fixed;fillColor=#fff2cc;strokeColor=#d6b656;gradientColor=#ffd966;" vertex="1" parent="1">
          <mxGeometry x="590" y="250" width="30" height="30" as="geometry" />
        </mxCell>
        <mxCell id="lrsJLsBb-M8_abIkjrfc-62" value="" style="ellipse;whiteSpace=wrap;html=1;aspect=fixed;fillColor=#fff2cc;strokeColor=#d6b656;gradientColor=#ffd966;" vertex="1" parent="1">
          <mxGeometry x="650" y="250" width="30" height="30" as="geometry" />
        </mxCell>
        <mxCell id="lrsJLsBb-M8_abIkjrfc-63" value="" style="endArrow=none;html=1;rounded=0;entryX=0;entryY=0.5;entryDx=0;entryDy=0;" edge="1" parent="1" target="lrsJLsBb-M8_abIkjrfc-61">
          <mxGeometry width="50" height="50" relative="1" as="geometry">
            <mxPoint x="558.75" y="264.5" as="sourcePoint" />
            <mxPoint x="598.75" y="264.5" as="targetPoint" />
          </mxGeometry>
        </mxCell>
        <mxCell id="lrsJLsBb-M8_abIkjrfc-64" value="" style="endArrow=none;html=1;rounded=0;entryX=0;entryY=0.5;entryDx=0;entryDy=0;" edge="1" parent="1">
          <mxGeometry width="50" height="50" relative="1" as="geometry">
            <mxPoint x="620" y="264.5" as="sourcePoint" />
            <mxPoint x="651.25" y="265" as="targetPoint" />
          </mxGeometry>
        </mxCell>
        <mxCell id="lrsJLsBb-M8_abIkjrfc-65" value="Release" style="rounded=0;whiteSpace=wrap;html=1;fillColor=#d5e8d4;strokeColor=#82b366;gradientColor=#97d077;" vertex="1" parent="1">
          <mxGeometry x="380" y="200" width="100" height="30" as="geometry" />
        </mxCell>
        <mxCell id="lrsJLsBb-M8_abIkjrfc-66" value="" style="endArrow=none;html=1;rounded=0;entryX=0;entryY=0.5;entryDx=0;entryDy=0;" edge="1" parent="1" target="lrsJLsBb-M8_abIkjrfc-67">
          <mxGeometry width="50" height="50" relative="1" as="geometry">
            <mxPoint x="480" y="214.5" as="sourcePoint" />
            <mxPoint x="611.25" y="214.5" as="targetPoint" />
          </mxGeometry>
        </mxCell>
        <mxCell id="lrsJLsBb-M8_abIkjrfc-67" value="" style="ellipse;whiteSpace=wrap;html=1;aspect=fixed;fillColor=#d5e8d4;strokeColor=#82b366;gradientColor=#97d077;" vertex="1" parent="1">
          <mxGeometry x="790" y="200" width="30" height="30" as="geometry" />
        </mxCell>
        <mxCell id="lrsJLsBb-M8_abIkjrfc-70" value="" style="endArrow=classic;html=1;rounded=0;entryX=0;entryY=0.5;entryDx=0;entryDy=0;" edge="1" parent="1" target="lrsJLsBb-M8_abIkjrfc-71">
          <mxGeometry width="50" height="50" relative="1" as="geometry">
            <mxPoint x="340" y="154.5" as="sourcePoint" />
            <mxPoint x="630" y="155" as="targetPoint" />
          </mxGeometry>
        </mxCell>
        <mxCell id="lrsJLsBb-M8_abIkjrfc-71" value="" style="ellipse;whiteSpace=wrap;html=1;aspect=fixed;fillColor=#dae8fc;strokeColor=#6c8ebf;" vertex="1" parent="1">
          <mxGeometry x="790" y="140" width="30" height="30" as="geometry" />
        </mxCell>
        <mxCell id="lrsJLsBb-M8_abIkjrfc-72" value="" style="endArrow=classic;html=1;rounded=0;entryX=0.267;entryY=-0.067;entryDx=0;entryDy=0;entryPerimeter=0;" edge="1" parent="1" target="lrsJLsBb-M8_abIkjrfc-51">
          <mxGeometry width="50" height="50" relative="1" as="geometry">
            <mxPoint x="680" y="270" as="sourcePoint" />
            <mxPoint x="748.75" y="310" as="targetPoint" />
          </mxGeometry>
        </mxCell>
        <mxCell id="lrsJLsBb-M8_abIkjrfc-73" value="" style="ellipse;whiteSpace=wrap;html=1;aspect=fixed;fillColor=#fff2cc;strokeColor=#d6b656;gradientColor=#ffd966;" vertex="1" parent="1">
          <mxGeometry x="790" y="250" width="30" height="30" as="geometry" />
        </mxCell>
        <mxCell id="lrsJLsBb-M8_abIkjrfc-76" value="" style="endArrow=none;html=1;rounded=0;entryX=0;entryY=0.5;entryDx=0;entryDy=0;" edge="1" parent="1" target="lrsJLsBb-M8_abIkjrfc-73">
          <mxGeometry width="50" height="50" relative="1" as="geometry">
            <mxPoint x="680" y="264.5" as="sourcePoint" />
            <mxPoint x="711.25" y="265" as="targetPoint" />
          </mxGeometry>
        </mxCell>
        <mxCell id="lrsJLsBb-M8_abIkjrfc-78" value="" style="endArrow=classic;html=1;rounded=0;entryX=0.5;entryY=1;entryDx=0;entryDy=0;" edge="1" parent="1" target="lrsJLsBb-M8_abIkjrfc-67">
          <mxGeometry width="50" height="50" relative="1" as="geometry">
            <mxPoint x="804.5" y="250" as="sourcePoint" />
            <mxPoint x="805" y="226" as="targetPoint" />
          </mxGeometry>
        </mxCell>
        <mxCell id="lrsJLsBb-M8_abIkjrfc-79" value="" style="endArrow=classic;html=1;rounded=0;entryX=0.5;entryY=1;entryDx=0;entryDy=0;" edge="1" parent="1" target="lrsJLsBb-M8_abIkjrfc-71">
          <mxGeometry width="50" height="50" relative="1" as="geometry">
            <mxPoint x="804.5" y="200" as="sourcePoint" />
            <mxPoint x="805" y="176" as="targetPoint" />
          </mxGeometry>
        </mxCell>
        <mxCell id="lrsJLsBb-M8_abIkjrfc-83" value="" style="ellipse;whiteSpace=wrap;html=1;aspect=fixed;fillColor=#0050ef;strokeColor=#001DBC;fontColor=#ffffff;" vertex="1" parent="1">
          <mxGeometry x="930" y="304" width="30" height="30" as="geometry" />
        </mxCell>
        <mxCell id="lrsJLsBb-M8_abIkjrfc-84" value="" style="endArrow=classic;html=1;rounded=0;" edge="1" parent="1">
          <mxGeometry width="50" height="50" relative="1" as="geometry">
            <mxPoint x="890" y="319" as="sourcePoint" />
            <mxPoint x="930" y="320" as="targetPoint" />
          </mxGeometry>
        </mxCell>
        <mxCell id="lrsJLsBb-M8_abIkjrfc-85" value="" style="endArrow=classic;html=1;rounded=0;entryX=0.3;entryY=-0.1;entryDx=0;entryDy=0;entryPerimeter=0;exitX=0.5;exitY=1;exitDx=0;exitDy=0;" edge="1" parent="1" source="lrsJLsBb-M8_abIkjrfc-19" target="lrsJLsBb-M8_abIkjrfc-32">
          <mxGeometry width="50" height="50" relative="1" as="geometry">
            <mxPoint x="245" y="334" as="sourcePoint" />
            <mxPoint x="365" y="400" as="targetPoint" />
          </mxGeometry>
        </mxCell>
        <mxCell id="lrsJLsBb-M8_abIkjrfc-86" value="cs-100-xxx" style="rounded=0;whiteSpace=wrap;html=1;fillColor=#e1d5e7;strokeColor=#9673a6;" vertex="1" parent="1">
          <mxGeometry x="358.75" y="558" width="72.5" height="20" as="geometry" />
        </mxCell>
        <mxCell id="lrsJLsBb-M8_abIkjrfc-87" value="" style="endArrow=none;html=1;rounded=0;" edge="1" parent="1">
          <mxGeometry width="50" height="50" relative="1" as="geometry">
            <mxPoint x="395" y="537" as="sourcePoint" />
            <mxPoint x="394.5" y="557" as="targetPoint" />
          </mxGeometry>
        </mxCell>
        <mxCell id="lrsJLsBb-M8_abIkjrfc-88" value="" style="endArrow=classic;html=1;rounded=0;" edge="1" parent="1">
          <mxGeometry width="50" height="50" relative="1" as="geometry">
            <mxPoint x="410" y="521.5" as="sourcePoint" />
            <mxPoint x="460" y="522" as="targetPoint" />
          </mxGeometry>
        </mxCell>
        <mxCell id="lrsJLsBb-M8_abIkjrfc-89" value="" style="ellipse;whiteSpace=wrap;html=1;aspect=fixed;fillColor=#e1d5e7;strokeColor=#9673a6;" vertex="1" parent="1">
          <mxGeometry x="460" y="507" width="30" height="30" as="geometry" />
        </mxCell>
        <mxCell id="lrsJLsBb-M8_abIkjrfc-90" value="" style="endArrow=classic;html=1;rounded=0;" edge="1" parent="1">
          <mxGeometry width="50" height="50" relative="1" as="geometry">
            <mxPoint x="490" y="521.5" as="sourcePoint" />
            <mxPoint x="540" y="522" as="targetPoint" />
          </mxGeometry>
        </mxCell>
        <mxCell id="lrsJLsBb-M8_abIkjrfc-91" value="" style="ellipse;whiteSpace=wrap;html=1;aspect=fixed;fillColor=#e1d5e7;strokeColor=#9673a6;" vertex="1" parent="1">
          <mxGeometry x="540" y="507" width="30" height="30" as="geometry" />
        </mxCell>
        <mxCell id="lrsJLsBb-M8_abIkjrfc-92" value="" style="endArrow=classic;html=1;rounded=0;" edge="1" parent="1">
          <mxGeometry width="50" height="50" relative="1" as="geometry">
            <mxPoint x="570" y="521.5" as="sourcePoint" />
            <mxPoint x="620" y="522" as="targetPoint" />
          </mxGeometry>
        </mxCell>
        <mxCell id="lrsJLsBb-M8_abIkjrfc-93" value="" style="ellipse;whiteSpace=wrap;html=1;aspect=fixed;fillColor=#e1d5e7;strokeColor=#9673a6;" vertex="1" parent="1">
          <mxGeometry x="620" y="507" width="30" height="30" as="geometry" />
        </mxCell>
        <mxCell id="lrsJLsBb-M8_abIkjrfc-94" value="" style="endArrow=classic;html=1;rounded=0;" edge="1" parent="1">
          <mxGeometry width="50" height="50" relative="1" as="geometry">
            <mxPoint x="650" y="521.5" as="sourcePoint" />
            <mxPoint x="700" y="522" as="targetPoint" />
          </mxGeometry>
        </mxCell>
        <mxCell id="lrsJLsBb-M8_abIkjrfc-95" value="" style="ellipse;whiteSpace=wrap;html=1;aspect=fixed;fillColor=#e1d5e7;strokeColor=#9673a6;" vertex="1" parent="1">
          <mxGeometry x="700" y="507" width="30" height="30" as="geometry" />
        </mxCell>
        <mxCell id="lrsJLsBb-M8_abIkjrfc-96" value="" style="endArrow=classic;html=1;rounded=0;entryX=1;entryY=1;entryDx=0;entryDy=0;" edge="1" parent="1" target="lrsJLsBb-M8_abIkjrfc-55">
          <mxGeometry width="50" height="50" relative="1" as="geometry">
            <mxPoint x="730" y="521" as="sourcePoint" />
            <mxPoint x="880" y="340" as="targetPoint" />
          </mxGeometry>
        </mxCell>
        <mxCell id="lrsJLsBb-M8_abIkjrfc-97" value="" style="ellipse;whiteSpace=wrap;html=1;aspect=fixed;fillColor=#fff2cc;strokeColor=#d6b656;gradientColor=#ffd966;" vertex="1" parent="1">
          <mxGeometry x="930" y="250" width="30" height="30" as="geometry" />
        </mxCell>
        <mxCell id="lrsJLsBb-M8_abIkjrfc-99" value="" style="endArrow=classic;html=1;rounded=0;entryX=0;entryY=0.5;entryDx=0;entryDy=0;" edge="1" parent="1" target="lrsJLsBb-M8_abIkjrfc-97">
          <mxGeometry width="50" height="50" relative="1" as="geometry">
            <mxPoint x="880" y="304" as="sourcePoint" />
            <mxPoint x="930" y="244" as="targetPoint" />
          </mxGeometry>
        </mxCell>
        <mxCell id="lrsJLsBb-M8_abIkjrfc-101" value="" style="endArrow=classic;html=1;rounded=0;entryX=0.5;entryY=0;entryDx=0;entryDy=0;" edge="1" parent="1" target="lrsJLsBb-M8_abIkjrfc-53">
          <mxGeometry width="50" height="50" relative="1" as="geometry">
            <mxPoint x="804.5" y="280" as="sourcePoint" />
            <mxPoint x="805" y="300" as="targetPoint" />
          </mxGeometry>
        </mxCell>
        <mxCell id="lrsJLsBb-M8_abIkjrfc-103" value="" style="endArrow=classic;html=1;rounded=0;entryX=0.5;entryY=0;entryDx=0;entryDy=0;" edge="1" parent="1">
          <mxGeometry width="50" height="50" relative="1" as="geometry">
            <mxPoint x="944.5" y="280" as="sourcePoint" />
            <mxPoint x="945" y="304" as="targetPoint" />
          </mxGeometry>
        </mxCell>
        <mxCell id="lrsJLsBb-M8_abIkjrfc-104" value="" style="ellipse;whiteSpace=wrap;html=1;aspect=fixed;fillColor=#d5e8d4;strokeColor=#82b366;gradientColor=#97d077;" vertex="1" parent="1">
          <mxGeometry x="930" y="200" width="30" height="30" as="geometry" />
        </mxCell>
        <mxCell id="lrsJLsBb-M8_abIkjrfc-105" value="" style="endArrow=classic;html=1;rounded=0;entryX=0.5;entryY=1;entryDx=0;entryDy=0;" edge="1" parent="1">
          <mxGeometry width="50" height="50" relative="1" as="geometry">
            <mxPoint x="944.5" y="250" as="sourcePoint" />
            <mxPoint x="945" y="230" as="targetPoint" />
          </mxGeometry>
        </mxCell>
        <mxCell id="lrsJLsBb-M8_abIkjrfc-106" value="" style="endArrow=none;html=1;rounded=0;entryX=0;entryY=0.5;entryDx=0;entryDy=0;" edge="1" parent="1" target="lrsJLsBb-M8_abIkjrfc-104">
          <mxGeometry width="50" height="50" relative="1" as="geometry">
            <mxPoint x="820" y="214.5" as="sourcePoint" />
            <mxPoint x="1010" y="215" as="targetPoint" />
          </mxGeometry>
        </mxCell>
        <mxCell id="lrsJLsBb-M8_abIkjrfc-107" value="" style="endArrow=classic;html=1;rounded=0;entryX=0.5;entryY=1;entryDx=0;entryDy=0;" edge="1" parent="1">
          <mxGeometry width="50" height="50" relative="1" as="geometry">
            <mxPoint x="944.5" y="200" as="sourcePoint" />
            <mxPoint x="945" y="170" as="targetPoint" />
          </mxGeometry>
        </mxCell>
        <mxCell id="lrsJLsBb-M8_abIkjrfc-108" value="" style="ellipse;whiteSpace=wrap;html=1;aspect=fixed;fillColor=#dae8fc;strokeColor=#6c8ebf;direction=south;" vertex="1" parent="1">
          <mxGeometry x="930" y="140" width="30" height="30" as="geometry" />
        </mxCell>
        <mxCell id="lrsJLsBb-M8_abIkjrfc-109" value="" style="endArrow=classic;html=1;rounded=0;entryX=0.5;entryY=1;entryDx=0;entryDy=0;" edge="1" parent="1" target="lrsJLsBb-M8_abIkjrfc-108">
          <mxGeometry width="50" height="50" relative="1" as="geometry">
            <mxPoint x="820" y="154.5" as="sourcePoint" />
            <mxPoint x="1050" y="155.5" as="targetPoint" />
          </mxGeometry>
        </mxCell>
        <mxCell id="lrsJLsBb-M8_abIkjrfc-110" value="v.1.1.0" style="rounded=0;whiteSpace=wrap;html=1;fillColor=#dae8fc;strokeColor=#6c8ebf;" vertex="1" parent="1">
          <mxGeometry x="777.5" y="100" width="55" height="20" as="geometry" />
        </mxCell>
        <mxCell id="lrsJLsBb-M8_abIkjrfc-111" value="v.1.2.0" style="rounded=0;whiteSpace=wrap;html=1;fillColor=#dae8fc;strokeColor=#6c8ebf;" vertex="1" parent="1">
          <mxGeometry x="917.5" y="100" width="55" height="20" as="geometry" />
        </mxCell>
        <mxCell id="lrsJLsBb-M8_abIkjrfc-113" value="" style="endArrow=none;html=1;rounded=0;" edge="1" parent="1">
          <mxGeometry width="50" height="50" relative="1" as="geometry">
            <mxPoint x="805" y="120" as="sourcePoint" />
            <mxPoint x="804.5" y="140" as="targetPoint" />
          </mxGeometry>
        </mxCell>
        <mxCell id="lrsJLsBb-M8_abIkjrfc-114" value="" style="endArrow=none;html=1;rounded=0;" edge="1" parent="1">
          <mxGeometry width="50" height="50" relative="1" as="geometry">
            <mxPoint x="945" y="120" as="sourcePoint" />
            <mxPoint x="944.5" y="140" as="targetPoint" />
          </mxGeometry>
        </mxCell>
      </root>
    </mxGraphModel>
  </diagram>
</mxfile>
